ply
format ascii 1.0
comment Created by Blender 2.71 (sub 0) - www.blender.org, source file: ''
element vertex 24
property float x
property float y
property float z
property float nx
property float ny
property float nz
property float s
property float t
element face 12
property list uchar uint vertex_indices
end_header
8.000000 8.000000 -8.000000 1.000000 -0.000000 0.000000 0.000100 1.000050
8.000000 8.000000 8.000000 1.000000 -0.000000 0.000000 0.000100 0.000100
8.000000 -8.000000 8.000000 1.000000 -0.000000 0.000000 1.000050 0.000100
8.000000 8.000000 8.000000 0.000000 0.000000 1.000000 0.000101 0.999900
-8.000000 8.000000 8.000000 0.000000 0.000000 1.000000 0.000101 -0.000050
-8.000000 -8.000000 8.000000 0.000000 0.000000 1.000000 1.000051 -0.000050
-8.000000 8.000000 8.000000 -1.000000 0.000000 0.000000 0.000101 0.999950
-8.000000 8.000000 -8.000000 -1.000000 0.000000 0.000000 0.000101 0.000001
-8.000000 -8.000000 -8.000000 -1.000000 0.000000 0.000000 1.000051 0.000000
-8.000000 8.000000 -8.000000 0.000000 0.000000 -1.000000 0.000101 1.000001
8.000000 8.000000 -8.000000 0.000000 0.000000 -1.000000 0.000100 0.000050
8.000000 -8.000000 -8.000000 0.000000 0.000000 -1.000000 1.000050 0.000050
8.000000 -8.000000 -8.000000 0.000000 -1.000000 0.000000 0.000251 1.000200
8.000000 -8.000000 8.000000 0.000000 -1.000000 0.000000 0.000251 0.000250
-8.000000 -8.000000 8.000000 0.000000 -1.000000 0.000000 1.000201 0.000250
-8.000000 8.000000 -8.000000 0.000000 1.000000 0.000000 1.000201 0.000100
-8.000000 8.000000 8.000000 0.000000 1.000000 0.000000 1.000201 1.000050
8.000000 8.000000 8.000000 0.000000 1.000000 0.000000 0.000251 1.000050
8.000000 -8.000000 -8.000000 1.000000 0.000000 0.000000 1.000050 1.000050
8.000000 -8.000000 8.000000 -0.000000 0.000000 1.000000 1.000051 0.999900
-8.000000 -8.000000 8.000000 -1.000000 0.000000 0.000000 1.000051 0.999950
-8.000000 -8.000000 -8.000000 -0.000000 -0.000000 -1.000000 1.000051 1.000000
-8.000000 -8.000000 -8.000000 -0.000000 -1.000000 -0.000000 1.000201 1.000200
8.000000 8.000000 -8.000000 -0.000000 1.000000 0.000000 0.000251 0.000100
3 0 1 2
3 3 4 5
3 6 7 8
3 9 10 11
3 12 13 14
3 15 16 17
3 18 0 2
3 19 3 5
3 20 6 8
3 21 9 11
3 22 12 14
3 23 15 17
